<svg xmlns="http://www.w3.org/2000/svg" width="846" height="219" viewBox="0 0 846 219" role="img" aria-labelledby="title"><g transform="scale(1 0.88)"><title id="title">558 contribuições entre 27 de julho e 20 de setembro de 2026. Uma barra por dia, escala linear.</title><style>text{font-family:Arial,Helvetica,sans-serif;fill:#e6edf3}.muted{fill:#9198a1}.accent{fill:#ba9ce6}.pulse{animation:breathe 14s ease-in-out infinite}@keyframes breathe{0%,100%{opacity:.35}50%{opacity:.9}}@media(prefers-reduced-motion:reduce){.pulse{animation:none}}</style><text x="2" y="20" font-size="11" class="muted" letter-spacing="1.4">ATIVIDADE NO GITHUB</text><text x="2" y="59" font-size="36" font-weight="600" letter-spacing="-1">558</text><text x="76" y="58" font-size="13" class="muted">contribuições</text><text x="844" y="58" font-size="12" class="muted" text-anchor="end">8 semanas</text><path d="M2.00 83V182" stroke="#21262d" stroke-dasharray="2 5"/><path d="M107.25 83V182" stroke="#21262d" stroke-dasharray="2 5"/><path d="M212.50 83V182" stroke="#21262d" stroke-dasharray="2 5"/><path d="M317.75 83V182" stroke="#21262d" stroke-dasharray="2 5"/><path d="M423.00 83V182" stroke="#21262d" stroke-dasharray="2 5"/><path d="M528.25 83V182" stroke="#21262d" stroke-dasharray="2 5"/><path d="M633.50 83V182" stroke="#21262d" stroke-dasharray="2 5"/><path d="M738.75 83V182" stroke="#21262d" stroke-dasharray="2 5"/><rect x="2.00" y="181.00" width="9.77" height="1.00" rx=".6" fill="#30363d"><title>2026-07-27: 0 contribuições</title></rect><rect x="17.04" y="181.00" width="9.77" height="1.00" rx=".6" fill="#30363d"><title>2026-07-28: 0 contribuições</title></rect><rect x="32.07" y="181.23" width="9.77" height="0.77" rx=".6" fill="#8463b0"><title>2026-07-29: 1 contribuições</title></rect><rect x="47.11" y="181.00" width="9.77" height="1.00" rx=".6" fill="#30363d"><title>2026-07-30: 0 contribuições</title></rect><rect x="62.14" y="181.00" width="9.77" height="1.00" rx=".6" fill="#30363d"><title>2026-07-31: 0 contribuições</title></rect><rect x="77.18" y="181.00" width="9.77" height="1.00" rx=".6" fill="#30363d"><title>2026-08-01: 0 contribuições</title></rect><rect x="92.21" y="181.00" width="9.77" height="1.00" rx=".6" fill="#30363d"><title>2026-08-02: 0 contribuições</title></rect><rect x="107.25" y="181.00" width="9.77" height="1.00" rx=".6" fill="#30363d"><title>2026-08-03: 0 contribuições</title></rect><rect x="122.29" y="181.00" width="9.77" height="1.00" rx=".6" fill="#30363d"><title>2026-08-04: 0 contribuições</title></rect><rect x="137.32" y="181.00" width="9.77" height="1.00" rx=".6" fill="#30363d"><title>2026-08-05: 0 contribuições</title></rect><rect x="152.36" y="181.00" width="9.77" height="1.00" rx=".6" fill="#30363d"><title>2026-08-06: 0 contribuições</title></rect><rect x="167.39" y="181.00" width="9.77" height="1.00" rx=".6" fill="#30363d"><title>2026-08-07: 0 contribuições</title></rect><rect x="182.43" y="181.00" width="9.77" height="1.00" rx=".6" fill="#30363d"><title>2026-08-08: 0 contribuições</title></rect><rect x="197.46" y="181.00" width="9.77" height="1.00" rx=".6" fill="#30363d"><title>2026-08-09: 0 contribuições</title></rect><rect x="212.50" y="181.00" width="9.77" height="1.00" rx=".6" fill="#30363d"><title>2026-08-10: 0 contribuições</title></rect><rect x="227.54" y="181.00" width="9.77" height="1.00" rx=".6" fill="#30363d"><title>2026-08-11: 0 contribuições</title></rect><rect x="242.57" y="181.00" width="9.77" height="1.00" rx=".6" fill="#30363d"><title>2026-08-12: 0 contribuições</title></rect><rect x="257.61" y="181.23" width="9.77" height="0.77" rx=".6" fill="#8463b0"><title>2026-08-13: 1 contribuições</title></rect><rect x="272.64" y="180.46" width="9.77" height="1.54" rx=".6" fill="#8463b0"><title>2026-08-14: 2 contribuições</title></rect><rect x="287.68" y="181.00" width="9.77" height="1.00" rx=".6" fill="#30363d"><title>2026-08-15: 0 contribuições</title></rect><rect x="302.71" y="181.00" width="9.77" height="1.00" rx=".6" fill="#30363d"><title>2026-08-16: 0 contribuições</title></rect><rect x="317.75" y="181.00" width="9.77" height="1.00" rx=".6" fill="#30363d"><title>2026-08-17: 0 contribuições</title></rect><rect x="332.79" y="181.00" width="9.77" height="1.00" rx=".6" fill="#30363d"><title>2026-08-18: 0 contribuições</title></rect><rect x="347.82" y="175.85" width="9.77" height="6.15" rx=".6" fill="#8463b0"><title>2026-08-19: 8 contribuições</title></rect><rect x="362.86" y="181.00" width="9.77" height="1.00" rx=".6" fill="#30363d"><title>2026-08-20: 0 contribuições</title></rect><rect x="377.89" y="181.23" width="9.77" height="0.77" rx=".6" fill="#8463b0"><title>2026-08-21: 1 contribuições</title></rect><rect x="392.93" y="175.85" width="9.77" height="6.15" rx=".6" fill="#8463b0"><title>2026-08-22: 8 contribuições</title></rect><rect x="407.96" y="180.46" width="9.77" height="1.54" rx=".6" fill="#8463b0"><title>2026-08-23: 2 contribuições</title></rect><rect x="423.00" y="178.15" width="9.77" height="3.85" rx=".6" fill="#8463b0"><title>2026-08-24: 5 contribuições</title></rect><rect x="438.04" y="174.31" width="9.77" height="7.69" rx=".6" fill="#8463b0"><title>2026-08-25: 10 contribuições</title></rect><rect x="453.07" y="174.31" width="9.77" height="7.69" rx=".6" fill="#8463b0"><title>2026-08-26: 10 contribuições</title></rect><rect x="468.11" y="171.23" width="9.77" height="10.77" rx=".6" fill="#8463b0"><title>2026-08-27: 14 contribuições</title></rect><rect x="483.14" y="178.92" width="9.77" height="3.08" rx=".6" fill="#8463b0"><title>2026-08-28: 4 contribuições</title></rect><rect x="498.18" y="181.23" width="9.77" height="0.77" rx=".6" fill="#8463b0"><title>2026-08-29: 1 contribuições</title></rect><rect x="513.21" y="181.23" width="9.77" height="0.77" rx=".6" fill="#8463b0"><title>2026-08-30: 1 contribuições</title></rect><rect x="528.25" y="181.23" width="9.77" height="0.77" rx=".6" fill="#8463b0"><title>2026-08-31: 1 contribuições</title></rect><rect x="543.29" y="178.15" width="9.77" height="3.85" rx=".6" fill="#8463b0"><title>2026-09-01: 5 contribuições</title></rect><rect x="558.32" y="181.23" width="9.77" height="0.77" rx=".6" fill="#8463b0"><title>2026-09-02: 1 contribuições</title></rect><rect x="573.36" y="181.00" width="9.77" height="1.00" rx=".6" fill="#30363d"><title>2026-09-03: 0 contribuições</title></rect><rect x="588.39" y="145.85" width="9.77" height="36.15" rx=".6" fill="#8463b0"><title>2026-09-04: 47 contribuições</title></rect><rect x="603.43" y="175.85" width="9.77" height="6.15" rx=".6" fill="#8463b0"><title>2026-09-05: 8 contribuições</title></rect><rect x="618.46" y="176.62" width="9.77" height="5.38" rx=".6" fill="#8463b0"><title>2026-09-06: 7 contribuições</title></rect><rect x="633.50" y="169.69" width="9.77" height="12.31" rx=".6" fill="#8463b0"><title>2026-09-07: 16 contribuições</title></rect><rect x="648.54" y="145.08" width="9.77" height="36.92" rx=".6" fill="#8463b0"><title>2026-09-08: 48 contribuições</title></rect><rect x="663.57" y="137.38" width="9.77" height="44.62" rx=".6" fill="#8463b0"><title>2026-09-09: 58 contribuições</title></rect><rect x="678.61" y="158.92" width="9.77" height="23.08" rx=".6" fill="#8463b0"><title>2026-09-10: 30 contribuições</title></rect><rect x="693.64" y="175.85" width="9.77" height="6.15" rx=".6" fill="#8463b0"><title>2026-09-11: 8 contribuições</title></rect><rect x="708.68" y="178.92" width="9.77" height="3.08" rx=".6" fill="#8463b0"><title>2026-09-12: 4 contribuições</title></rect><rect x="723.71" y="150.46" width="9.77" height="31.54" rx=".6" fill="#8463b0"><title>2026-09-13: 41 contribuições</title></rect><rect x="738.75" y="92.00" width="9.77" height="90.00" rx=".6" fill="#bc9be8"><title>2026-09-14: 117 contribuições</title></rect><rect x="753.79" y="149.69" width="9.77" height="32.31" rx=".6" fill="#bc9be8"><title>2026-09-15: 42 contribuições</title></rect><rect x="768.82" y="177.38" width="9.77" height="4.62" rx=".6" fill="#bc9be8"><title>2026-09-16: 6 contribuições</title></rect><rect x="783.86" y="181.23" width="9.77" height="0.77" rx=".6" fill="#bc9be8"><title>2026-09-17: 1 contribuições</title></rect><rect x="798.89" y="181.23" width="9.77" height="0.77" rx=".6" fill="#bc9be8"><title>2026-09-18: 1 contribuições</title></rect><rect x="813.93" y="170.46" width="9.77" height="11.54" rx=".6" fill="#bc9be8"><title>2026-09-19: 15 contribuições</title></rect><rect x="828.96" y="155.85" width="9.77" height="26.15" rx=".6" fill="#bc9be8"><title>2026-09-20: 34 contribuições</title></rect><path d="M2 187H844" stroke="#30363d"/><path class="pulse" d="M816 187H844" stroke="#c2a3ec" stroke-width="1.5"/><text x="2" y="211" font-size="11" class="muted">27 jul 2026</text><text x="844" y="211" font-size="11" class="muted" text-anchor="end">20 set 2026</text><text x="2" y="239" font-size="11" class="muted">Cada barra representa um dia.</text><text x="844" y="239" font-size="11" class="muted" text-anchor="end">Dados reais · recorte de 20/09/2026</text></g></svg>